<svg width="118" height="28" viewBox="0 0 118 28" fill="none" xmlns="http://www.w3.org/2000/svg">
<rect width="52" height="28" rx="2" fill="url(#paint0_linear_716_166)"/>
<path d="M4 14C5.65685 14 7 12.6569 7 11C7 9.34315 5.65685 8 4 8V14Z" fill="white"/>
<path d="M4 15H5C7.20914 15 9 16.7909 9 19V20H4V15Z" fill="white"/>
<path d="M18.92 20.096C18.056 20.096 17.2827 19.9093 16.6 19.536C15.9173 19.152 15.3787 18.6293 14.984 17.968C14.6 17.296 14.408 16.5387 14.408 15.696V8.784H16.136V15.552C16.136 16.096 16.264 16.5867 16.52 17.024C16.776 17.4507 17.112 17.792 17.528 18.048C17.9547 18.304 18.4187 18.432 18.92 18.432C19.4533 18.432 19.9333 18.304 20.36 18.048C20.7973 17.792 21.144 17.4507 21.4 17.024C21.656 16.5867 21.784 16.096 21.784 15.552V8.784H23.432V15.696C23.432 16.5387 23.2347 17.296 22.84 17.968C22.456 18.6293 21.9227 19.152 21.24 19.536C20.5573 19.9093 19.784 20.096 18.92 20.096ZM28.9557 20.16C28.2517 20.16 27.6171 20.0373 27.0517 19.792C26.4864 19.5467 26.0171 19.184 25.6437 18.704L26.7637 17.744C27.0837 18.1173 27.4304 18.3893 27.8038 18.56C28.1878 18.72 28.6198 18.8 29.0998 18.8C29.2918 18.8 29.4678 18.7787 29.6277 18.736C29.7984 18.6827 29.9424 18.608 30.0598 18.512C30.1878 18.416 30.2838 18.304 30.3478 18.176C30.4117 18.0373 30.4437 17.888 30.4437 17.728C30.4437 17.4507 30.3424 17.2267 30.1398 17.056C30.0331 16.9813 29.8624 16.9013 29.6277 16.816C29.4037 16.72 29.1104 16.624 28.7478 16.528C28.1291 16.368 27.6224 16.1867 27.2278 15.984C26.8331 15.7813 26.5291 15.552 26.3157 15.296C26.1557 15.0933 26.0384 14.8747 25.9637 14.64C25.8891 14.3947 25.8517 14.128 25.8517 13.84C25.8517 13.3707 25.9851 12.9547 26.2517 12.592C26.5184 12.2293 26.8757 11.9467 27.3238 11.744C27.7824 11.5307 28.2944 11.424 28.8598 11.424C29.2544 11.424 29.6438 11.4773 30.0278 11.584C30.4224 11.6907 30.7851 11.8453 31.1158 12.048C31.4464 12.2507 31.7238 12.4907 31.9478 12.768L31.0038 13.808C30.8011 13.6053 30.5771 13.4293 30.3317 13.28C30.0971 13.12 29.8571 12.9973 29.6118 12.912C29.3664 12.8267 29.1424 12.784 28.9397 12.784C28.7157 12.784 28.5131 12.8053 28.3317 12.848C28.1504 12.8907 27.9958 12.9547 27.8677 13.04C27.7504 13.1253 27.6597 13.232 27.5957 13.36C27.5317 13.488 27.4997 13.632 27.4997 13.792C27.5104 13.9307 27.5424 14.064 27.5957 14.192C27.6597 14.3093 27.7451 14.4107 27.8517 14.496C27.9691 14.5813 28.1451 14.672 28.3798 14.768C28.6144 14.864 28.9131 14.9547 29.2758 15.04C29.8091 15.1787 30.2464 15.3333 30.5877 15.504C30.9398 15.664 31.2171 15.8507 31.4198 16.064C31.6331 16.2667 31.7824 16.5013 31.8678 16.768C31.9531 17.0347 31.9957 17.3333 31.9957 17.664C31.9957 18.144 31.8571 18.576 31.5798 18.96C31.3131 19.3333 30.9504 19.6267 30.4918 19.84C30.0331 20.0533 29.5211 20.16 28.9557 20.16ZM37.892 20.16C37.028 20.16 36.26 19.9787 35.588 19.616C34.9267 19.2427 34.404 18.736 34.02 18.096C33.6467 17.456 33.46 16.72 33.46 15.888C33.46 15.2267 33.5667 14.624 33.78 14.08C33.9933 13.536 34.2867 13.0667 34.66 12.672C35.044 12.2667 35.4973 11.9573 36.02 11.744C36.5533 11.52 37.1293 11.408 37.748 11.408C38.292 11.408 38.7987 11.5147 39.268 11.728C39.7373 11.9307 40.1427 12.2133 40.484 12.576C40.836 12.9387 41.1027 13.3707 41.284 13.872C41.476 14.3627 41.5667 14.9013 41.556 15.488L41.54 16.192H34.676L34.308 14.88H40.116L39.876 15.152V14.768C39.844 14.416 39.7267 14.1013 39.524 13.824C39.3213 13.5467 39.0653 13.328 38.756 13.168C38.4467 13.008 38.1107 12.928 37.748 12.928C37.172 12.928 36.6867 13.04 36.292 13.264C35.8973 13.4773 35.5987 13.7973 35.396 14.224C35.1933 14.64 35.092 15.1573 35.092 15.776C35.092 16.3627 35.2147 16.8747 35.46 17.312C35.7053 17.7387 36.052 18.0693 36.5 18.304C36.948 18.5387 37.4653 18.656 38.052 18.656C38.468 18.656 38.852 18.5867 39.204 18.448C39.5667 18.3093 39.956 18.0587 40.372 17.696L41.204 18.864C40.948 19.12 40.6333 19.344 40.26 19.536C39.8973 19.728 39.508 19.8827 39.092 20C38.6867 20.1067 38.2867 20.16 37.892 20.16ZM43.507 20V11.6H45.171V14.24L45.011 13.6C45.1283 13.1947 45.3257 12.8267 45.603 12.496C45.891 12.1653 46.2163 11.904 46.579 11.712C46.9523 11.52 47.3363 11.424 47.731 11.424C47.9123 11.424 48.083 11.44 48.243 11.472C48.4137 11.504 48.547 11.5413 48.643 11.584L48.211 13.376C48.083 13.3227 47.939 13.28 47.779 13.248C47.6297 13.2053 47.4803 13.184 47.331 13.184C47.043 13.184 46.7657 13.2427 46.499 13.36C46.243 13.4667 46.0137 13.6213 45.811 13.824C45.619 14.016 45.4643 14.2453 45.347 14.512C45.2297 14.768 45.171 15.0507 45.171 15.36V20H43.507Z" fill="white"/>
<path d="M55.1805 20V8.8H59.9485C60.5885 8.8 61.1752 8.96 61.7085 9.28C62.2525 9.58933 62.6845 10.016 63.0045 10.56C63.3245 11.0933 63.4845 11.696 63.4845 12.368C63.4845 12.976 63.3245 13.5413 63.0045 14.064C62.6845 14.5867 62.2578 15.008 61.7245 15.328C61.1912 15.6373 60.5992 15.792 59.9485 15.792H56.9085V20H55.1805ZM61.8365 20L58.9885 14.944L60.7645 14.544L63.9325 20.016L61.8365 20ZM56.9085 14.128H60.1085C60.4178 14.128 60.6952 14.0533 60.9405 13.904C61.1858 13.744 61.3778 13.5307 61.5165 13.264C61.6552 12.9867 61.7245 12.6827 61.7245 12.352C61.7245 11.9787 61.6338 11.6533 61.4525 11.376C61.2818 11.088 61.0365 10.864 60.7165 10.704C60.4072 10.544 60.0552 10.464 59.6605 10.464H56.9085V14.128ZM69.657 20.16C68.793 20.16 68.025 19.9787 67.353 19.616C66.6917 19.2427 66.169 18.736 65.785 18.096C65.4117 17.456 65.225 16.72 65.225 15.888C65.225 15.2267 65.3317 14.624 65.545 14.08C65.7583 13.536 66.0517 13.0667 66.425 12.672C66.809 12.2667 67.2623 11.9573 67.785 11.744C68.3183 11.52 68.8943 11.408 69.513 11.408C70.057 11.408 70.5637 11.5147 71.033 11.728C71.5023 11.9307 71.9077 12.2133 72.249 12.576C72.601 12.9387 72.8677 13.3707 73.049 13.872C73.241 14.3627 73.3317 14.9013 73.321 15.488L73.305 16.192H66.441L66.073 14.88H71.881L71.641 15.152V14.768C71.609 14.416 71.4917 14.1013 71.289 13.824C71.0863 13.5467 70.8303 13.328 70.521 13.168C70.2117 13.008 69.8757 12.928 69.513 12.928C68.937 12.928 68.4517 13.04 68.057 13.264C67.6623 13.4773 67.3637 13.7973 67.161 14.224C66.9583 14.64 66.857 15.1573 66.857 15.776C66.857 16.3627 66.9797 16.8747 67.225 17.312C67.4703 17.7387 67.817 18.0693 68.265 18.304C68.713 18.5387 69.2303 18.656 69.817 18.656C70.233 18.656 70.617 18.5867 70.969 18.448C71.3317 18.3093 71.721 18.0587 72.137 17.696L72.969 18.864C72.713 19.12 72.3983 19.344 72.025 19.536C71.6623 19.728 71.273 19.8827 70.857 20C70.4517 20.1067 70.0517 20.16 69.657 20.16ZM78.84 20.16C78.0613 20.16 77.3627 19.968 76.744 19.584C76.136 19.2 75.6507 18.6773 75.288 18.016C74.936 17.3547 74.76 16.6133 74.76 15.792C74.76 14.9707 74.936 14.2293 75.288 13.568C75.6507 12.9067 76.136 12.384 76.744 12C77.3627 11.616 78.0613 11.424 78.84 11.424C79.5867 11.424 80.264 11.5787 80.872 11.888C81.4907 12.1867 81.96 12.5973 82.28 13.12L81.368 14.24C81.1973 13.9947 80.9787 13.7707 80.712 13.568C80.4453 13.3653 80.1627 13.2053 79.864 13.088C79.5653 12.9707 79.2773 12.912 79 12.912C78.488 12.912 78.0293 13.04 77.624 13.296C77.2293 13.5413 76.9147 13.8827 76.68 14.32C76.4453 14.7573 76.328 15.248 76.328 15.792C76.328 16.336 76.4507 16.8267 76.696 17.264C76.9413 17.6907 77.2667 18.032 77.672 18.288C78.0773 18.544 78.5253 18.672 79.016 18.672C79.304 18.672 79.5813 18.624 79.848 18.528C80.1253 18.432 80.392 18.288 80.648 18.096C80.904 17.904 81.144 17.6693 81.368 17.392L82.28 18.512C81.9387 18.992 81.448 19.3867 80.808 19.696C80.1787 20.0053 79.5227 20.16 78.84 20.16ZM87.7705 20.16C86.9492 20.16 86.2132 19.9733 85.5625 19.6C84.9225 19.216 84.4158 18.6987 84.0425 18.048C83.6692 17.3867 83.4825 16.6347 83.4825 15.792C83.4825 14.9493 83.6692 14.2027 84.0425 13.552C84.4158 12.8907 84.9225 12.3733 85.5625 12C86.2132 11.616 86.9492 11.424 87.7705 11.424C88.5812 11.424 89.3065 11.616 89.9465 12C90.5972 12.3733 91.1092 12.8907 91.4825 13.552C91.8558 14.2027 92.0425 14.9493 92.0425 15.792C92.0425 16.6347 91.8558 17.3867 91.4825 18.048C91.1092 18.6987 90.5972 19.216 89.9465 19.6C89.3065 19.9733 88.5812 20.16 87.7705 20.16ZM87.7705 18.656C88.2718 18.656 88.7198 18.5333 89.1145 18.288C89.5092 18.032 89.8185 17.6907 90.0425 17.264C90.2665 16.8267 90.3732 16.336 90.3625 15.792C90.3732 15.2373 90.2665 14.7467 90.0425 14.32C89.8185 13.8827 89.5092 13.5413 89.1145 13.296C88.7198 13.0507 88.2718 12.928 87.7705 12.928C87.2692 12.928 86.8158 13.056 86.4105 13.312C86.0158 13.5573 85.7065 13.8987 85.4825 14.336C85.2585 14.7627 85.1518 15.248 85.1625 15.792C85.1518 16.336 85.2585 16.8267 85.4825 17.264C85.7065 17.6907 86.0158 18.032 86.4105 18.288C86.8158 18.5333 87.2692 18.656 87.7705 18.656ZM93.9983 20V11.6H95.6623V14.24L95.5023 13.6C95.6196 13.1947 95.8169 12.8267 96.0943 12.496C96.3823 12.1653 96.7076 11.904 97.0703 11.712C97.4436 11.52 97.8276 11.424 98.2223 11.424C98.4036 11.424 98.5743 11.44 98.7343 11.472C98.9049 11.504 99.0383 11.5413 99.1343 11.584L98.7023 13.376C98.5743 13.3227 98.4303 13.28 98.2703 13.248C98.1209 13.2053 97.9716 13.184 97.8223 13.184C97.5343 13.184 97.2569 13.2427 96.9903 13.36C96.7343 13.4667 96.5049 13.6213 96.3023 13.824C96.1103 14.016 95.9556 14.2453 95.8383 14.512C95.7209 14.768 95.6623 15.0507 95.6623 15.36V20H93.9983ZM103.756 20.16C102.988 20.16 102.3 19.9733 101.692 19.6C101.095 19.216 100.62 18.6987 100.268 18.048C99.916 17.3867 99.74 16.6347 99.74 15.792C99.74 14.9493 99.9107 14.2027 100.252 13.552C100.604 12.8907 101.079 12.3733 101.676 12C102.273 11.616 102.951 11.424 103.708 11.424C104.124 11.424 104.524 11.4933 104.908 11.632C105.303 11.76 105.655 11.9413 105.964 12.176C106.273 12.4 106.513 12.6507 106.684 12.928C106.865 13.1947 106.956 13.4667 106.956 13.744L106.476 13.776V8.16H108.124V20H106.476V18H106.796C106.796 18.256 106.711 18.512 106.54 18.768C106.369 19.0133 106.14 19.2427 105.852 19.456C105.575 19.6693 105.249 19.84 104.876 19.968C104.513 20.096 104.14 20.16 103.756 20.16ZM103.98 18.736C104.481 18.736 104.924 18.608 105.308 18.352C105.692 18.096 105.991 17.7493 106.204 17.312C106.428 16.864 106.54 16.3573 106.54 15.792C106.54 15.2267 106.428 14.7253 106.204 14.288C105.991 13.84 105.692 13.488 105.308 13.232C104.924 12.976 104.481 12.848 103.98 12.848C103.479 12.848 103.036 12.976 102.652 13.232C102.268 13.488 101.964 13.84 101.74 14.288C101.527 14.7253 101.42 15.2267 101.42 15.792C101.42 16.3573 101.527 16.864 101.74 17.312C101.964 17.7493 102.268 18.096 102.652 18.352C103.036 18.608 103.479 18.736 103.98 18.736ZM113.353 20.16C112.649 20.16 112.014 20.0373 111.449 19.792C110.883 19.5467 110.414 19.184 110.041 18.704L111.161 17.744C111.481 18.1173 111.827 18.3893 112.201 18.56C112.585 18.72 113.017 18.8 113.497 18.8C113.689 18.8 113.865 18.7787 114.025 18.736C114.195 18.6827 114.339 18.608 114.457 18.512C114.585 18.416 114.681 18.304 114.745 18.176C114.809 18.0373 114.841 17.888 114.841 17.728C114.841 17.4507 114.739 17.2267 114.537 17.056C114.43 16.9813 114.259 16.9013 114.025 16.816C113.801 16.72 113.507 16.624 113.145 16.528C112.526 16.368 112.019 16.1867 111.625 15.984C111.23 15.7813 110.926 15.552 110.713 15.296C110.553 15.0933 110.435 14.8747 110.361 14.64C110.286 14.3947 110.249 14.128 110.249 13.84C110.249 13.3707 110.382 12.9547 110.649 12.592C110.915 12.2293 111.273 11.9467 111.721 11.744C112.179 11.5307 112.691 11.424 113.257 11.424C113.651 11.424 114.041 11.4773 114.425 11.584C114.819 11.6907 115.182 11.8453 115.513 12.048C115.843 12.2507 116.121 12.4907 116.345 12.768L115.401 13.808C115.198 13.6053 114.974 13.4293 114.729 13.28C114.494 13.12 114.254 12.9973 114.009 12.912C113.763 12.8267 113.539 12.784 113.337 12.784C113.113 12.784 112.91 12.8053 112.729 12.848C112.547 12.8907 112.393 12.9547 112.265 13.04C112.147 13.1253 112.057 13.232 111.993 13.36C111.929 13.488 111.897 13.632 111.897 13.792C111.907 13.9307 111.939 14.064 111.993 14.192C112.057 14.3093 112.142 14.4107 112.249 14.496C112.366 14.5813 112.542 14.672 112.777 14.768C113.011 14.864 113.31 14.9547 113.673 15.04C114.206 15.1787 114.643 15.3333 114.985 15.504C115.337 15.664 115.614 15.8507 115.817 16.064C116.03 16.2667 116.179 16.5013 116.265 16.768C116.35 17.0347 116.393 17.3333 116.393 17.664C116.393 18.144 116.254 18.576 115.977 18.96C115.71 19.3333 115.347 19.6267 114.889 19.84C114.43 20.0533 113.918 20.16 113.353 20.16Z" fill="#5D5FEF"/>
<defs>
<linearGradient id="paint0_linear_716_166" x1="52" y1="3.11111" x2="-68.9116" y2="35.9236" gradientUnits="userSpaceOnUse">
<stop stop-color="#5D5FEF"/>
<stop offset="0.622052" stop-color="#B95EC2"/>
<stop offset="1" stop-color="#EF5DA8"/>
</linearGradient>
</defs>
</svg>
